<svg width="56" height="56" viewBox="0 0 56 56" fill="none" xmlns="http://www.w3.org/2000/svg">
<g clip-path="url(#clip0_41_45)">
<path d="M51.9864 35.9669C52.964 34.99 53.502 33.6913 53.5016 32.3103L53.5016 23.5303C53.5018 22.149 52.963 20.8496 51.9869 19.8733C51.0097 18.8967 49.7106 18.3581 48.3286 18.3583L29.0127 18.3583C27.6314 18.3581 26.3323 18.8957 25.3557 19.873C24.3792 20.8502 23.8411 22.1489 23.8414 23.5309L23.8405 30.3643C23.8404 30.5062 23.8785 30.6394 23.9449 30.7544C24.08 30.9884 24.3323 31.146 24.6223 31.146C25.0543 31.1461 25.404 30.7961 25.404 30.3642L25.405 23.5307C25.4045 22.5666 25.78 21.6597 26.461 20.9783C27.1421 20.2969 28.0485 19.9217 29.0128 19.9219L48.3287 19.9219C49.2932 19.9221 50.1997 20.2969 50.8816 20.9786C51.5619 21.6594 51.9386 22.5667 51.938 23.5305L51.9379 32.3105C51.9379 33.2739 51.5628 34.1798 50.8811 34.8616C50.1994 35.5434 49.2931 35.9186 48.3286 35.9184L38.3779 35.9181C37.946 35.9181 37.5963 36.268 37.5962 36.7C37.5956 37.1296 37.9457 37.481 38.3781 37.4818L48.3287 37.482C49.7101 37.4821 51.0092 36.9445 51.9864 35.9669Z" fill="#C1C1C1"/>
<path d="M32.1579 32.4666L32.1576 24.4616C32.1576 24.0296 31.8076 23.6799 31.3757 23.6798C30.9438 23.6798 30.5941 24.0297 30.594 24.4617L30.5943 32.4667C30.5937 34.4565 28.9747 36.0752 26.9849 36.0746L7.66905 36.0747C6.70504 36.075 5.79913 35.6999 5.11734 35.0182C4.4369 34.3374 4.0604 33.4318 4.06064 32.4674L4.06066 23.6874C4.06131 21.6976 5.6799 20.0782 7.66929 20.0782L17.62 20.0784C18.0519 20.0784 18.4016 19.7284 18.4017 19.2965C18.4021 18.8652 18.0524 18.5144 17.6198 18.5148L7.66912 18.5145C4.81794 18.515 2.49792 20.8355 2.49708 23.6875L2.49707 32.4675C2.49758 33.3875 2.73592 34.2706 3.18362 35.046C3.40843 35.4354 3.68566 35.798 4.01233 36.1242C4.98896 37.1011 6.2883 37.6387 7.66919 37.6382L26.9851 37.6382C29.836 37.6388 32.1564 35.3189 32.1579 32.4666Z" fill="#C1C1C1"/>
</g>
<defs>
<clipPath id="clip0_41_45">
<rect width="56" height="56" fill="white" transform="translate(56) rotate(90)"/>
</clipPath>
</defs>
</svg>
